<?xml version="1.0" encoding="utf-8"?>
<!-- Generator: Adobe Illustrator 22.1.0, SVG Export Plug-In . SVG Version: 6.00 Build 0)  -->
<svg version="1.1" id="Layer_1" xmlns="http://www.w3.org/2000/svg" xmlns:xlink="http://www.w3.org/1999/xlink" x="0px" y="0px"
	 viewBox="0 0 512 512" style="enable-background:new 0 0 512 512;" xml:space="preserve">
<style type="text/css">
	.st0{fill:none;stroke:#000000;stroke-width:4;stroke-miterlimit:10;}
</style>
<path d="M348,150.6L222.7,275.9c-0.9,0.9-1.4,2.2-1.4,3.5v16.4c0,2.7,2.2,4.9,4.9,4.9h16.3c1.3,0,2.6-0.5,3.5-1.4L371.4,174
	c1.9-1.9,1.9-5,0-6.9L355,150.6C353,148.6,349.9,148.6,348,150.6z M392.2,138.8l-8.9-8.9l-0.1-0.1c-1.9-1.7-4.5-2.7-7.1-2.7
	c-2.7,0-5.3,1.1-7.2,2.8l-7,7.1c-0.9,1-0.9,2.5,0,3.5l6.5,6.5l13.5,13.5c1,1,2.5,1,3.5,0l7-7c1.7-1.9,2.7-4.4,2.7-7.2
	C395,143.3,394,140.7,392.2,138.8z"/>
<g>
	<path d="M252.3,309.4c-1.9,1.9-4.4,2.9-7,2.9h-25.7c-5.5,0-9.9-4.5-9.9-9.9v-25.7c0-2.6,1.1-5.1,2.9-7l0.5-0.5l91.6-91.6
		c1.6-1.6,0.4-4.2-1.7-4.2H153.5c-20.1,0-36.4,16.3-36.4,36.4v138.9c0,20.1,16.3,36.4,36.4,36.4h158.8c20.1,0,36.4-16.3,36.4-36.4
		V219.1c0-2.2-2.7-3.3-4.2-1.7l-91.7,91.6L252.3,309.4z"/>
</g>
<circle class="st0" cx="256" cy="256" r="216"/>
</svg>
