<?xml version="1.0" encoding="utf-8"?>
<!-- Generator: Adobe Illustrator 22.1.0, SVG Export Plug-In . SVG Version: 6.00 Build 0)  -->
<svg version="1.1" id="Layer_1" xmlns="http://www.w3.org/2000/svg" xmlns:xlink="http://www.w3.org/1999/xlink" x="0px" y="0px"
	 viewBox="0 0 512 512" style="enable-background:new 0 0 512 512;" xml:space="preserve">
<style type="text/css">
	.st0{fill:none;stroke:#000000;stroke-width:4;stroke-miterlimit:10;}
</style>
<path d="M363.6,153.5H338v15.4c0,2.8-2.3,5.1-5.1,5.1h-10.2c-2.8,0-5.1-2.3-5.1-5.1v-15.4h-123v15.4c0,2.8-2.3,5.1-5.1,5.1h-10.2
	c-2.8,0-5.1-2.3-5.1-5.1v-15.4h-25.6c-14.1,0-25.6,11.5-25.6,25.6v174.2c0,14.1,11.5,25.6,25.6,25.6h215.2
	c14.1,0,25.6-11.5,25.6-25.6V179.1C389.2,165,377.7,153.5,363.6,153.5z M368.8,345.7c0,7-5.8,12.8-12.8,12.8H156.1
	c-7,0-12.8-5.8-12.8-12.8V230.4c0-2.8,2.3-5.1,5.1-5.1h215.2c2.8,0,5.1,2.3,5.1,5.1V345.7z M194.5,138.1c0-2.8-2.3-5.1-5.1-5.1
	h-10.2c-2.8,0-5.1,2.3-5.1,5.1v15.4h20.5V138.1z M338,138.1c0-2.8-2.3-5.1-5.1-5.1h-10.2c-2.8,0-5.1,2.3-5.1,5.1v15.4H338V138.1z"/>
<circle class="st0" cx="256" cy="256" r="216"/>
</svg>
