<?xml version="1.0" encoding="utf-8"?>
<!-- Generator: Adobe Illustrator 22.1.0, SVG Export Plug-In . SVG Version: 6.00 Build 0)  -->
<svg version="1.1" id="Layer_1" xmlns="http://www.w3.org/2000/svg" xmlns:xlink="http://www.w3.org/1999/xlink" x="0px" y="0px"
	 viewBox="0 0 512 512" style="enable-background:new 0 0 512 512;" xml:space="preserve">
<style type="text/css">
	.st0{fill:none;stroke:#000000;stroke-width:4;stroke-miterlimit:10;}
</style>
<path d="M369.6,290.6c-2.3-7-5.8-13.6-10.5-19.7c-4.7-6.1-10.5-11.6-17.5-16.3c-7-4.8-15.2-8.5-24.5-11.3c-3.8-1-10.4-2.6-19.1-4.7
	c-6.2-1.5-12.1-3.1-18.6-4.7v-77.3c6.6,1.8,11.2,4.5,16,7.6c10.4,6.6,17,17.9,18.9,33.3h50.6c-0.5-13.2-3.4-24-8.8-33.7
	c-5.9-10.6-13.9-19.8-23.9-27c-10.1-7.3-22.1-12.8-35.4-16.4c-5.8-1.6-10.9-2.9-17.4-3.8V92.2h-46.8v24.3
	c-5.1,0.8-11.1,1.8-16.4,3.1c-12.6,3.1-23.7,7.9-33.6,14.5c-9.9,6.5-17.8,14.7-23.8,24.6c-6,9.9-9,21.6-9,35.1c0,7,1,13.9,3,20.6
	c2,6.8,5.4,13.1,10.3,19.1c4.8,6,11.3,11.4,19.5,16.3c8.2,4.9,18.1,8.8,30.4,11.8c6.8,1.7,13.8,3.3,19.6,4.8v87.4
	c-8-2.1-16-5.4-22.4-9.9c-6.7-4.6-11.7-10.2-15.5-17.5c-3.5-6.7-5.2-15-5.4-23.8H139c0.5,15.4,3.8,28.9,10,40.5
	c6.4,12.1,15,21.9,25.7,29.7c10.7,7.8,23,13.4,37.4,17.2c6.5,1.7,13.8,2.9,20.4,3.8v25.8h46.8v-25.3c7.3-0.8,13.9-2,20.9-3.6
	c13.7-3.1,26.1-8.1,36.8-14.8c10.7-6.8,19.5-15.4,26-26.1c6.6-10.6,9.9-23.5,9.9-38.5C373,304.6,371.9,297.6,369.6,290.6
	L369.6,290.6z M232.6,222.1c-8.8-2.7-17.5-6.6-23.4-11.7c-6.3-5.4-9.3-12.8-9.3-22.3c0-6.8,1.8-12.4,5.1-16.9
	c3.3-4.5,7.2-8.1,12.3-10.7c4.5-2.3,10.1-4.1,15.2-5.2V222.1z M319.5,331.7c-2.1,4.9-5.6,9.2-10.5,13c-4.8,3.8-11.5,6.8-19.3,9.2
	c-3.3,1-6,1.8-10.4,2.4v-78.3c7.3,1.9,13.3,3.9,19.3,5.9c5.9,2,11.5,5.4,16.5,10.3c5,4.9,7.5,12.5,7.5,22.7
	C322.7,321.8,321.7,326.8,319.5,331.7L319.5,331.7z"/>
<circle class="st0" cx="256" cy="256" r="216"/>
</svg>
